<svg width="462" height="44" viewBox="0 0 462 44" fill="none" xmlns="http://www.w3.org/2000/svg">
<g filter="url(#filter0_d_75_1664)">
<path d="M193.06 21.08C192.26 21.44 191.46 21.7133 190.66 21.9C189.873 22.0867 189.113 22.18 188.38 22.18C186.74 22.18 185.46 21.7867 184.54 21C183.633 20.2 183.18 19.0733 183.18 17.62V13H184.64V17.46C184.64 18.54 184.98 19.38 185.66 19.98C186.353 20.58 187.307 20.88 188.52 20.88C189.24 20.88 189.987 20.7867 190.76 20.6C191.533 20.4 192.3 20.12 193.06 19.76V21.08ZM192.8 27V13H194.24V27H192.8ZM198.989 27V13H200.449V24.6L209.409 13H210.749V27H209.289V15.42L200.329 27H198.989ZM218.253 27V13.88L218.653 14.28H213.333V13H224.633V14.28H219.333L219.713 13.88V27H218.253ZM224.468 27L230.868 13H232.328L238.728 27H237.168L231.288 13.86H231.888L226.008 27H224.468ZM226.988 23.26L227.428 22.06H235.568L236.008 23.26H226.988ZM243.488 27V13.88L243.888 14.28H238.568V13H249.868V14.28H244.568L244.948 13.88V27H243.488ZM258.325 18C259.979 18 261.239 18.3733 262.105 19.12C262.985 19.8533 263.425 20.9467 263.425 22.4C263.425 23.9067 262.959 25.0533 262.025 25.84C261.092 26.6133 259.759 27 258.025 27H252.465V13H253.925V18H258.325ZM257.985 25.82C259.279 25.82 260.259 25.5333 260.925 24.96C261.605 24.3867 261.945 23.5467 261.945 22.44C261.945 21.3333 261.612 20.52 260.945 20C260.279 19.4667 259.292 19.2 257.985 19.2H253.925V25.82H257.985Z" fill="white"/>
<line x1="4" y1="20.5" x2="151" y2="20.5" stroke="white"/>
<line x1="298" y1="20.5" x2="445" y2="20.5" stroke="white"/>
</g>
<defs>
<filter id="filter0_d_75_1664" x="0" y="0" width="466" height="52" filterUnits="userSpaceOnUse" color-interpolation-filters="sRGB">
<feFlood flood-opacity="0" result="BackgroundImageFix"/>
<feColorMatrix in="SourceAlpha" type="matrix" values="0 0 0 0 0 0 0 0 0 0 0 0 0 0 0 0 0 0 127 0" result="hardAlpha"/>
<feOffset dy="4"/>
<feGaussianBlur stdDeviation="2"/>
<feComposite in2="hardAlpha" operator="out"/>
<feColorMatrix type="matrix" values="0 0 0 0 0 0 0 0 0 0 0 0 0 0 0 0 0 0 0.25 0"/>
<feBlend mode="normal" in2="BackgroundImageFix" result="effect1_dropShadow_75_1664"/>
<feBlend mode="normal" in="SourceGraphic" in2="effect1_dropShadow_75_1664" result="shape"/>
</filter>
</defs>
</svg>
